<svg xmlns="http://www.w3.org/2000/svg" width="1512" height="982" viewBox="0 0 1512 982">
  <image href="xpaste-impl-desktop-light.png" width="1512" height="982" />
  <rect width="1512" height="982" fill="#0f172a" fill-opacity="0.3" />
  <g transform="translate(562 216)">
    <rect width="388" height="550" rx="16" fill="#fff" stroke="#e5e7eb" />
    <circle cx="356" cy="31" r="15" fill="#f8fafc" stroke="#e5e7eb" />
    <path d="m351 26 10 10m0-10-10 10" stroke="#64748b" stroke-width="1.5" />
    <text x="194" y="53" text-anchor="middle" fill="#111827" font-family="Segoe UI, PingFang SC, sans-serif" font-size="19" font-weight="700">Connect another device</text>
    <text x="194" y="78" text-anchor="middle" fill="#64748b" font-family="Segoe UI, PingFang SC, sans-serif" font-size="13">Scan this code with a phone or tablet</text>
    <text x="194" y="97" text-anchor="middle" fill="#64748b" font-family="Segoe UI, PingFang SC, sans-serif" font-size="13">to open xpaste.</text>
    <rect x="85" y="119" width="218" height="218" rx="14" fill="#fff" stroke="#e2e8f0" />
    <g transform="translate(99 133)" fill="#111827">
      <path d="M0 0h70v70H0zm10 10v50h50V10zm10 10h30v30H20zM120 0h70v70h-70zm10 10v50h50V10zm10 10h30v30h-30zM0 120h70v70H0zm10 10v50h50v-50zm10 10h30v30H20z" />
      <path d="M80 0h10v20H80zM100 0h20v10h-20zM90 20h30v10H90zM80 40h10v30H80zM100 40h20v10h-20zM80 80h30v10H80zM120 80h30v10h-30zM160 80h30v10h-30zM0 80h20v10H0zM30 80h30v10H30zM10 100h20v10H10zM40 100h30v10H40zM80 100h10v30H80zM100 100h30v10h-30zM140 100h10v20h-10zM160 100h30v10h-30zM0 120h30v10H0zM80 120h20v10H80zM110 120h30v10h-30zM160 120h30v10h-30zM80 140h10v20H80zM100 140h30v10h-30zM140 140h20v10h-20zM170 140h20v20h-20zM90 160h30v10H90zM130 160h10v30h-10zM150 160h20v10h-20zM80 180h40v10H80zM150 180h40v10h-40z" />
    </g>
    <rect x="24" y="359" width="340" height="44" rx="9" fill="#f8fafc" stroke="#e2e8f0" />
    <text x="39" y="386" fill="#334155" font-family="Cascadia Code, monospace" font-size="12">http://192.168.1.20:3000</text>
    <text x="331" y="386" text-anchor="end" fill="#2563eb" font-family="Segoe UI, sans-serif" font-size="12" font-weight="600">Copy</text>
    <g transform="translate(82 429)" fill="none" stroke="#64748b" stroke-width="1.5">
      <path d="M0 6a10 10 0 0 1 14 0M3 9a6 6 0 0 1 8 0M6 12a2 2 0 0 1 2 0" />
      <circle cx="7" cy="16" r="1" fill="#64748b" stroke="none" />
    </g>
    <text x="108" y="445" fill="#64748b" font-family="Segoe UI, PingFang SC, sans-serif" font-size="12">Keep both devices on the same network</text>
  </g>
</svg>
